<?xml version="1.0" encoding="UTF-8" standalone="no"?>
<!-- Created with Inkscape (http://www.inkscape.org/) -->

<svg
   xmlns:dc="http://purl.org/dc/elements/1.1/"
   xmlns:cc="http://creativecommons.org/ns#"
   xmlns:rdf="http://www.w3.org/1999/02/22-rdf-syntax-ns#"
   xmlns:svg="http://www.w3.org/2000/svg"
   xmlns="http://www.w3.org/2000/svg"
   xmlns:xlink="http://www.w3.org/1999/xlink"
   xmlns:sodipodi="http://sodipodi.sourceforge.net/DTD/sodipodi-0.dtd"
   xmlns:inkscape="http://www.inkscape.org/namespaces/inkscape"
   width="730.34796"
   height="730.32965"
   id="svg2"
   version="1.1"
   inkscape:version="0.91 r13725"
   sodipodi:docname="vinyl-new.svg">
  <defs
     id="defs4">
    <linearGradient
       id="linearGradient3795">
      <stop
         style="stop-color:#ffffff;stop-opacity:0.1;"
         offset="0"
         id="stop3797" />
      <stop
         style="stop-color:#ffffff;stop-opacity:0;"
         offset="1"
         id="stop3799" />
    </linearGradient>
    <linearGradient
       id="linearGradient3781">
      <stop
         style="stop-color:#c8be75;stop-opacity:1"
         offset="0"
         id="stop3783" />
      <stop
         id="stop3809"
         offset="0.22935505"
         style="stop-color:#f3e68e;stop-opacity:1" />
      <stop
         id="stop3789"
         offset="0.76150304"
         style="stop-color:#f4e78f;stop-opacity:1;" />
      <stop
         style="stop-color:#bdb36e;stop-opacity:1;"
         offset="1"
         id="stop3785" />
    </linearGradient>
    <radialGradient
       inkscape:collect="always"
       xlink:href="#linearGradient3781"
       id="radialGradient3787"
       cx="428.86029"
       cy="579.38312"
       fx="428.86029"
       fy="579.38312"
       r="357.83969"
       gradientUnits="userSpaceOnUse" />
    <radialGradient
       inkscape:collect="always"
       xlink:href="#linearGradient3795"
       id="radialGradient3801"
       cx="370.4043"
       cy="477.94406"
       fx="370.4043"
       fy="477.94406"
       r="362.71976"
       gradientTransform="matrix(1,0,0,0.92473938,0,35.970365)"
       gradientUnits="userSpaceOnUse" />
    <filter
       id="filter3803"
       inkscape:label="Fancy blur"
       inkscape:menu="Blurs"
       inkscape:menu-tooltip="Smooth colorized contour which allows desaturation and hue rotation"
       style="color-interpolation-filters:sRGB">
      <feGaussianBlur
         id="feGaussianBlur3805"
         stdDeviation="5"
         result="result1" />
      <feComposite
         id="feComposite3807"
         in2="result1"
         operator="arithmetic"
         k2="2"
         in="result1"
         k1="0"
         k3="0"
         k4="0" />
    </filter>
    <radialGradient
       inkscape:collect="always"
       xlink:href="#linearGradient3795"
       id="radialGradient3822"
       gradientUnits="userSpaceOnUse"
       gradientTransform="matrix(1,0,0,0.92473938,0,35.970365)"
       cx="370.4043"
       cy="477.94406"
       fx="370.4043"
       fy="477.94406"
       r="362.71976" />
    <radialGradient
       inkscape:collect="always"
       xlink:href="#linearGradient3781"
       id="radialGradient3824"
       gradientUnits="userSpaceOnUse"
       cx="428.86029"
       cy="579.38312"
       fx="428.86029"
       fy="579.38312"
       r="357.83969" />
  </defs>
  <sodipodi:namedview
     id="base"
     pagecolor="#ffffff"
     bordercolor="#666666"
     borderopacity="1.0"
     inkscape:pageopacity="0.0"
     inkscape:pageshadow="2"
     inkscape:zoom="0.98050782"
     inkscape:cx="169.98315"
     inkscape:cy="607.82757"
     inkscape:document-units="px"
     inkscape:current-layer="layer1"
     showgrid="false"
     inkscape:snap-bbox="true"
     inkscape:bbox-paths="true"
     inkscape:bbox-nodes="true"
     inkscape:snap-bbox-edge-midpoints="true"
     inkscape:snap-bbox-midpoints="true"
     inkscape:object-paths="true"
     inkscape:snap-intersection-paths="true"
     inkscape:object-nodes="true"
     inkscape:snap-smooth-nodes="true"
     inkscape:snap-midpoints="true"
     inkscape:snap-object-midpoints="true"
     inkscape:snap-center="true"
     inkscape:window-width="1280"
     inkscape:window-height="751"
     inkscape:window-x="32"
     inkscape:window-y="0"
     inkscape:window-maximized="0"
     inkscape:snap-global="false"
     fit-margin-top="0"
     fit-margin-left="0"
     fit-margin-right="0"
     fit-margin-bottom="0" />
  <metadata
     id="metadata7">
    <rdf:RDF>
      <cc:Work
         rdf:about="">
        <dc:format>image/svg+xml</dc:format>
        <dc:type
           rdf:resource="http://purl.org/dc/dcmitype/StillImage" />
        <dc:title></dc:title>
      </cc:Work>
    </rdf:RDF>
  </metadata>
  <g
     inkscape:label="Camada 1"
     inkscape:groupmode="layer"
     id="layer1"
     transform="translate(-5.221137,-112.97347)">
    <g
       id="g3804">
      <circle
         transform="matrix(1.0332717,0,0,1.0332717,-72.661389,-120.49071)"
         id="path2985"
         style="fill:#333333;stroke:#dbdbdb;stroke-width:4.83899832;stroke-miterlimit:4;stroke-dasharray:none;stroke-opacity:1"
         cx="428.86029"
         cy="579.38312"
         r="351.00366" />
      <path
         sodipodi:nodetypes="cssssssssssssssssssssssscssssssssssssssssssssssssssssssssssssssssssssssssssssssssssssssssssssssssssssssssssssssssssssssssssssssssssssssssssssssssssssssssssssssssssssssssssssssssssssssc"
         inkscape:connector-curvature="0"
         id="path3801"
         d="m 435.32721,402.7309 c 20.44258,-20.44252 35.3238,7.29811 25.50371,25.50378 -11.89366,22.04989 -42.14519,23.64278 -60.82924,9.82164 -24.85557,-18.3864 -26.34933,-54.93875 -7.41602,-78.0671 22.74291,-27.78205 65.05629,-29.09832 91.67127,-6.1879 30.50172,26.25615 31.67793,73.65812 5.41022,103.26968 -29.28328,33.01102 -81.25696,34.07954 -113.54184,4.86162 -35.33978,-31.9826 -36.32354,-88.13019 -4.44824,-122.85205 34.44108,-37.51678 94.44755,-38.43205 131.42317,-4.1225 39.56553,36.71274 40.42415,100.32174 3.85735,139.40342 -38.8339,41.5047 -105.83207,42.31555 -146.89738,3.63618 -43.34908,-40.83046 -44.11899,-111.03682 -3.44806,-153.98207 42.7216,-45.1106 115.98028,-45.84496 160.71618,-3.28558 46.79895,44.52207 47.50206,120.69706 3.14339,167.14564 -46.24344,48.42215 -125.21477,49.09753 -173.30719,3.01765 -49.98684,-47.89504 -50.63741,-129.55589 -2.9054,-179.23077 49.48448,-51.49868 133.73895,-52.12688 184.94114,-2.80442 52.96246,51.0181 53.57036,137.77952 2.71296,190.45909 -52.50124,54.3823 -141.69077,54.97167 -195.80224,2.62961 -55.76178,-53.93842 -56.33416,-145.48396 -2.55324,-200.98569 55.33353,-57.10402 149.1688,-57.66075 206.02249,-2.48295 58.41177,56.68996 58.95402,152.7538 2.41797,210.92403 -58.01066,59.68746 -156.24638,60.21626 -215.70031,2.35767 -60.93324,-59.29822 -61.4495,-159.65309 -2.3015,-220.36013 60.55493,-62.15105 162.97976,-62.65559 225.88757,-2.31987 59.98294,64.11597 56.93076,168.72896 -5.26391,229.72016 -62.78377,61.56892 -164.9052,58.60108 -224.31901,-6.03966 -59.97196,-65.24801 -56.86617,-171.58282 6.35793,-233.57311 63.81325,-62.56793 167.60176,-59.54818 227.98087,6.15371 60.93725,66.30922 57.77783,174.36585 -6.4757,237.35521 -64.84273,63.56697 -170.29832,60.4953 -231.64275,-6.26775 -61.9025,-67.37042 -58.68946,-177.14887 6.5935,-241.1373 65.8722,-64.566 172.99488,-61.44241 235.30462,6.38179 62.86776,68.43162 59.6011,179.93188 -6.71129,244.9194 -66.90168,65.56503 -175.69144,62.38953 -238.96649,-6.49584 -63.83304,-69.49282 -60.51275,-182.71491 6.82907,-248.7015 67.93114,-66.56407 178.388,-63.33664 242.62836,6.60988 64.79831,70.55402 61.4244,185.49793 -6.94685,252.4836 -68.96062,67.56311 -181.08457,64.28376 -246.29024,-6.72392 -65.76356,-71.61522 -62.33603,-188.28096 7.06465,-256.2657 69.99009,-68.56213 183.78112,-65.23087 249.9521,6.83796 66.72884,72.67642 63.24768,191.06398 -7.18243,260.04781 -71.01957,69.56116 -186.47768,66.17798 -253.61397,-6.95201 -67.69411,-73.73761 -64.15934,-193.84701 7.30022,-263.8299 72.04902,-70.5602 189.17424,-67.1251 257.27584,7.06606 68.65938,74.7988 65.07097,196.63002 -7.41801,267.61199 -73.0785,71.55923 -191.8708,68.07221 -260.93772,-7.1801 -69.62464,-75.86001 -65.98262,-199.41305 7.53581,-271.3941 74.10796,-72.55826 194.56736,-69.01933 264.59958,7.29415 70.58991,76.9212 66.89427,202.19607 -7.65359,275.1762 -75.13744,73.5573 -197.26393,69.96644 -268.26145,-7.4082 -71.5552,-77.9824 -67.80591,-204.9791 7.77137,-278.95829 76.1669,-74.55635 199.9605,-70.91356 271.92333,7.52223 72.52046,79.0436 68.71756,207.76213 -7.88916,282.7404 -77.19638,75.55538 -202.65707,71.86067 -275.5852,-7.63628 -73.48573,-80.10479 -69.62921,-210.54516 8.00695,-286.5225 78.22584,-76.55441 205.35363,-72.80779 279.24706,7.75032 74.45101,81.16599 70.54086,213.32819 -8.12473,290.30459 -79.25531,77.55347 -208.0502,73.75493 -282.90894,-7.86435 -75.41628,-82.22718 -71.45251,-216.11122 8.24252,-294.0867 80.28477,-78.55249 210.74677,-74.70203 286.57081,7.97842 76.38156,83.28836 72.36416,218.89423 -8.36031,297.86878 -81.31424,79.55153 -213.44333,75.64916 -290.23267,-8.09246 -77.34683,-84.34955 -73.27581,-221.67726 8.4781,-301.65087 82.3437,-80.55059 216.13989,-76.59628 293.89454,8.20649 78.3121,85.41076 74.18746,224.46029 -8.59589,305.43298 -83.37317,81.54961 -218.83646,77.5434 -297.55642,-8.32054 -79.27737,-86.47195 -75.0991,-227.24332 8.71368,-309.21508 84.40263,-82.54865 221.53302,-78.49052 301.21829,8.43458 80.24265,87.53314 76.01075,230.02636 -8.83146,312.99719 -85.4321,83.54769 -224.2296,79.43764 -304.88016,-8.54863 -81.20792,-88.59433 -76.92242,-232.80939 8.94925,-316.77928 86.46156,-84.54674 226.92616,-80.38477 308.54203,8.66267 82.1732,89.65552 77.83406,235.59241 -9.06704,320.56138 -87.49103,85.54577 -229.62273,81.33188 -312.2039,-8.77671 -83.13847,-90.71672 -78.74572,-238.37545 9.18482,-324.34349 88.52049,-86.54481 232.3193,-82.279 315.86577,8.89077 84.10376,91.7779 79.65737,241.15847 -9.30261,328.12557 -89.54995,87.54385 -235.01587,83.22612 -319.52764,-9.00481 -85.06903,-92.83908 -80.56902,-243.9415 9.42041,-331.90767 90.57941,-88.5429 237.71243,-84.17325 323.1895,9.11885 86.0343,93.90027 81.48068,246.72454 -9.53819,335.68978 -91.60888,89.54194 -240.40901,85.12036 -326.85137,-9.2329 -86.99959,-94.96146 -82.39233,-249.50757 9.65597,-339.47187 92.63835,-90.54098 243.10558,-86.06749 330.51325,9.34693 87.96486,96.02266 83.30397,252.29061 -9.77376,343.25397 -93.66781,91.54003 -245.80216,87.01462 -334.17512,-9.46097 -88.93015,-97.08385 -84.21564,-255.07364 9.89154,-347.03608 94.69727,-92.53906 248.49873,-87.96173 337.837,9.57503 89.89541,98.14504 85.12728,257.85667 -10.00934,350.81817 -95.72673,93.53811 -251.19529,88.90887 -341.49886,-9.68907 -90.86069,-99.20622 -86.03894,-260.63971 10.12712,-354.60026 96.7562,-94.53716 253.89187,-89.85599 345.16074,9.8031 91.82597,100.26742 86.95059,263.42274 -10.24491,358.38237 -97.78566,95.5362 -256.58845,90.80311 -348.82261,-9.91715 -92.79125,-101.32861 -87.86225,-266.20578 10.3627,-362.16447 98.81511,-96.53524 259.28501,-91.75023 352.48447,10.0312 93.75654,102.38979 88.7739,268.9888 -10.48049,365.94656 C 508.56898,686.4649 346.43197,681.62797 252.26721,578.78537 157.5454,475.3344 162.58165,307.01353 262.86549,209.05671 363.73953,110.52338 527.54364,115.41222 622.6737,219.316 718.36078,323.82816 713.27091,493.87087 611.95764,592.82676 510.05414,692.35913 344.58292,687.41836 248.48755,582.45343 151.83519,476.88007 156.97869,305.11552 259.3214,205.16057 362.25436,104.62914 529.3927,109.62183 626.45336,215.64794 724.071,322.28248 718.87388,495.76888 615.50172,596.7229 511.5393,698.25337 342.73386,693.20876 244.7079,586.12148 146.12497,478.42575 151.37572,303.2175 255.77732,201.26442 360.7692,98.734908 531.24176,103.83144 630.23302,211.97988 729.78122,320.73679 724.47684,497.66689 619.04581,600.61905 513.02446,704.1476 340.88479,698.99915 240.92824,589.78954 140.41476,479.97144 145.77275,301.31949 252.23323,197.36828 359.28403,92.840674 533.09082,98.041051 634.01268,208.31183 735.49144,319.19112 730.07982,499.56492 622.58988,604.51518 514.50963,710.04183 339.03573,704.78954 237.14858,593.45759 134.70454,481.51712 140.16979,299.42148 248.68916,193.47213 357.79887,86.94644 534.93989,92.250649 637.79233,204.64378 741.20166,317.64544 735.68279,501.46293 626.13397,608.41132 515.99479,715.93607 337.18666,710.57994 233.36892,597.12564 128.99432,483.0628 134.56681,297.52346 245.14507,189.576 356.31371,81.052206 536.78895,86.460258 641.57199,200.97572 746.91187,316.09975 741.28575,503.36095 629.67805,612.30747 517.47996,721.8303 335.3376,716.37033 229.58926,600.7937 123.2841,484.60849 128.96384,295.62544 241.60099,185.67986 354.82854,75.157972 538.63802,80.669867 645.35165,197.30766 752.62209,314.55407 746.88873,505.25896 633.22214,616.20361 518.96512,727.72454 333.48853,722.16073 225.80961,604.46176 117.57387,486.15417 123.36086,293.72742 238.0569,181.78371 353.34338,69.263739 540.48709,74.879465 649.13131,193.63962 758.33232,313.00838 752.4917,507.15698 636.76621,620.09976 520.45029,733.61877 331.63947,727.95112 222.02995,608.12981 111.86366,487.69985 117.7579,291.8294 234.51283,177.88757 351.85821,63.369505 542.33615,69.089074 652.91097,189.97156 764.04254,311.4627 758.09468,509.055 640.3103,623.9959 521.93546,739.51301 329.7904,733.74152 218.25029,611.79786 106.15344,489.24554 112.15492,289.93138 230.96874,173.99142 350.37305,57.475261 544.18522,63.298673 656.69063,186.3035 769.75276,309.91701 763.69764,510.95302 643.85438,627.89204 523.42062,745.40725 327.94133,739.53192 214.47063,615.46592 100.44322,490.79123 106.55195,288.03337 227.42466,170.09528 348.88787,51.581027 546.03429,57.508271 660.47028,182.63544 775.46298,308.37133 769.30062,512.85104 647.39847,631.78818 524.90579,751.30148 326.09226,745.32231 210.69097,619.13398 94.732991,492.33691 100.94898,286.13535 223.88057,166.19914 347.40271,45.686793 547.88336,51.71788 664.24994,178.96739 781.1732,306.82564 774.9036,514.74906 650.94255,635.68432 526.39095,757.19572 324.2432,751.11271 206.91132,622.80204 89.022773,493.88259 95.346001,284.23732 220.3365,162.303 345.91755,39.792549 549.73242,45.927479 668.0296,175.29934 786.88342,305.27995 780.50656,516.64708 654.48663,639.58047 527.87613,763.08996 322.39413,756.90311 203.13166,626.47008 83.312544,495.42829 89.743035,282.3393 216.79241,158.40686 344.43237,33.898315 551.58149,40.137078 671.80925,171.63128 792.59365,303.73427 786.10954,518.5451 658.03071,643.47661 529.36129,768.9842 320.54506,762.69351 199.352,630.13814 77.602326,496.97397 84.140058,280.44128 213.24833,154.51071 342.94721,28.004071 553.43055,34.346686 675.58892,167.96323 798.30387,302.18858 791.71252,520.44312 661.5748,647.37275 530.84647,774.87844 318.69599,768.48391 195.57234,633.8062 71.892098,498.51966 78.537082,278.54326 209.70424,150.61457 341.46203,22.109837 555.27962,28.556285 679.36857,164.29517 804.0141,300.64289 797.31549,522.34114 665.11888,651.2689 532.33163,780.77268 316.84692,774.27431 191.79268,637.47425 66.18188,500.06535 72.934105,276.64524 206.16016,146.71843 339.97687,16.215593 557.1287,22.765884 683.14823,160.62712 809.72431,299.0972 802.91846,524.23917 668.66296,655.16504 533.8168,786.66692 314.99785,780.06471 188.01303,641.1423 60.471651,501.61104 67.331138,274.74722 202.61608,142.82228 338.49169,10.321358 558.97777,16.975483 686.92789,156.95906 815.43454,297.55152 808.52144,526.13719 672.20704,659.06119 535.30197,792.56116 313.14878,785.85511 184.23337,644.81036 54.761423,503.15672 61.728152,272.84919 199.072,138.92614 337.00653,4.4271144 560.82684,11.185081 690.70754,153.29101 821.14477,296.00583 814.12441,528.03521 675.75113,662.95732 536.78714,798.4554 311.29971,791.64551 180.45371,648.47842 49.051202,504.70241 56.12518,270.95117 195.52791,135.02999 335.52136,-1.46713 562.67591,5.39468 694.48721,149.62295 826.85499,294.46013 819.72739,529.93323 679.29521,666.85346 538.27232,804.34964 309.45064,797.43591 176.67405,652.14647 43.340976,506.24811 50.522204,269.05315 191.98383,131.13386 334.03619,-7.3613638 564.52498,-0.39572136 698.26686,145.9549 832.56522,292.91445 825.33036,531.83126 682.83929,670.74961 539.75748,810.24388 307.60157,803.22631 172.89439,655.81452 37.630751,507.79379 44.919228,267.15512 188.43975,127.23772"
         style="fill:none;stroke:#666666;stroke-width:1.01628363px;stroke-linecap:butt;stroke-linejoin:miter;stroke-opacity:1"
         transform="matrix(0.03013676,0.99951546,-0.96774208,0.03112622,745.66802,30.696064)" />
      <path
         sodipodi:nodetypes="ccccc"
         inkscape:connector-curvature="0"
         id="path3791"
         d="M 733.12404,477.56353 7.6845451,478.37506 C 9.5701765,614.95652 79.640492,747.01241 232.29844,813.36529 L 508.39502,142.52282 c 133.03181,57.03658 221.0448,178.59089 224.72902,335.04071 z"
         style="fill:url(#radialGradient3822);fill-opacity:1;stroke:none;filter:url(#filter3803)" />
      <circle
         style="fill:url(#radialGradient3824);fill-opacity:1;stroke:#ffffff;stroke-width:13.67202663;stroke-miterlimit:4;stroke-dasharray:none;stroke-opacity:1"
         id="path3763"
         transform="matrix(0.36571023,0,0,0.36571023,213.62922,266.28314)"
         cx="428.86029"
         cy="579.38312"
         r="351.00366" />
      <circle
         transform="matrix(0.03363299,0,0,0.03363299,356.04396,458.68309)"
         id="path3765"
         style="fill:#000000;fill-opacity:1;stroke:#ffffff;stroke-width:148.66355896;stroke-miterlimit:4;stroke-dasharray:none;stroke-opacity:1"
         cx="428.86029"
         cy="579.38312"
         r="351.00366" />
    </g>
  </g>
</svg>
